<svg width="48" height="48" viewBox="0 0 48 48" fill="none" xmlns="http://www.w3.org/2000/svg">
<path d="M24 47.9997C37.2186 47.9997 48 37.2186 48 24C48 10.7812 37.2188 0 24 0C10.7812 0 0 10.7812 0 23.9999C0 37.2185 10.7812 47.9997 24 47.9997Z" fill="#E8EDED"/>
<path d="M33.2107 16.4092V23.2885C33.2107 23.388 33.2085 23.4874 33.2061 23.5869C33.2039 23.6683 33.2017 23.7475 33.1971 23.8291C33.1949 23.9015 33.1903 23.9739 33.1835 24.0463C33.1813 24.0982 33.1766 24.1504 33.1722 24.2023C33.1698 24.2342 33.1676 24.2633 33.163 24.2952C33.1586 24.3517 33.154 24.4104 33.145 24.467C33.1359 24.5755 33.1223 24.682 33.1064 24.7904C33.1042 24.8177 33.0996 24.8448 33.0952 24.8718C33.0884 24.9262 33.0794 24.9805 33.0704 25.0347V25.0415C33.0569 25.1205 33.0433 25.1975 33.0297 25.2767C33.0092 25.3852 32.989 25.4939 32.9663 25.6001C32.9641 25.6047 32.9641 25.6094 32.9619 25.614C32.9597 25.6296 32.9573 25.6457 32.9529 25.6615C32.9507 25.6661 32.9507 25.6705 32.9482 25.6752C32.937 25.7341 32.9234 25.7905 32.9097 25.847C32.9053 25.8719 32.9007 25.8969 32.8917 25.9218C32.8849 25.9625 32.8734 26.003 32.8646 26.0439C32.8578 26.0666 32.8534 26.0914 32.8442 26.1139C32.8396 26.1344 32.833 26.1548 32.8283 26.1729C32.7808 26.3583 32.7265 26.5394 32.6699 26.7203C32.6426 26.8063 32.6156 26.8899 32.5863 26.976C32.5841 26.985 32.5795 26.994 32.5773 27.003C32.5502 27.08 32.5229 27.1568 32.4959 27.2338C32.4869 27.2565 32.4778 27.2789 32.4688 27.3038C32.4415 27.3762 32.4145 27.4486 32.3852 27.521C32.3513 27.609 32.315 27.695 32.2789 27.7812C32.2472 27.8583 32.2134 27.9348 32.1795 28.0118C32.1751 28.0257 32.1683 28.0367 32.1636 28.0503C32.1251 28.1317 32.089 28.2132 32.0505 28.2926C32.012 28.3762 31.9713 28.46 31.9284 28.5439C31.847 28.7089 31.7588 28.8741 31.6706 29.0345L31.5484 29.2517C31.1999 29.8513 30.8133 30.4143 30.3924 30.9347C30.3359 31.0092 30.2771 31.0816 30.216 31.1516C30.1324 31.2535 30.0463 31.3529 29.9603 31.4502C29.8833 31.5362 29.8065 31.622 29.7273 31.7059C29.5101 31.9389 29.2883 32.1604 29.0621 32.3688C29.0168 32.4139 28.9695 32.4548 28.922 32.4977C28.845 32.5677 28.7682 32.6357 28.689 32.7013C28.628 32.7556 28.5647 32.8075 28.5011 32.8597C28.3383 32.993 28.1754 33.1219 28.0102 33.2419C27.9424 33.294 27.8722 33.3437 27.8021 33.3913C27.689 33.4727 27.5735 33.5497 27.4582 33.6245C27.3948 33.6674 27.3292 33.7081 27.2637 33.7466C27.0329 33.8889 26.7998 34.0203 26.569 34.1334C26.5125 34.1629 26.4559 34.1902 26.3994 34.2172C26.3428 34.2443 26.2841 34.2716 26.2229 34.2986C26.1483 34.3325 26.0735 34.3642 25.9989 34.3937C25.9695 34.4071 25.9402 34.4186 25.9107 34.4276C25.8225 34.4639 25.7321 34.4975 25.6438 34.527C25.5332 34.568 25.4198 34.6018 25.3092 34.6333C25.2322 34.656 25.1532 34.6762 25.0762 34.6942C25.0715 34.6967 25.0671 34.6989 25.0603 34.6989C24.9833 34.7171 24.9065 34.7352 24.8295 34.7488C24.8093 34.7534 24.7888 34.7578 24.7686 34.7603C24.7052 34.7715 24.6418 34.7829 24.5785 34.7897C24.488 34.8034 24.3974 34.8146 24.3069 34.819C24.2753 34.8236 24.246 34.8258 24.2143 34.8258C24.1419 34.8302 24.0695 34.8326 23.9994 34.8326H23.9925C23.9226 34.8326 23.8524 34.8302 23.7822 34.8258C23.7551 34.8258 23.7278 34.8236 23.7008 34.819C23.6374 34.8168 23.5718 34.81 23.5039 34.801C23.4904 34.801 23.4746 34.7988 23.4609 34.7963C23.3773 34.7851 23.2935 34.7715 23.2077 34.7556C23.1353 34.7442 23.0629 34.7283 22.9881 34.7103C22.6013 34.6221 22.2033 34.4885 21.8006 34.3101C21.4567 34.1585 21.1084 33.9752 20.7623 33.7627C20.5883 33.6564 20.414 33.5433 20.242 33.4234C20.1559 33.3622 20.0701 33.301 19.9841 33.2377C19.7148 33.0408 19.4479 32.826 19.1856 32.5952C19.1132 32.5296 19.0408 32.4641 18.9685 32.3963C18.8961 32.3307 18.8237 32.2627 18.7535 32.1972C18.577 32.0275 18.4052 31.8513 18.2377 31.668C18.1722 31.5978 18.1066 31.5257 18.0408 31.4508C17.86 31.2473 17.6835 31.037 17.5161 30.8174C17.4505 30.7384 17.3893 30.657 17.3284 30.5754C17.0998 30.2722 16.8828 29.9555 16.6791 29.6273C16.6247 29.5393 16.5704 29.4488 16.5185 29.3604C16.4551 29.2541 16.3942 29.1454 16.333 29.0369C16.1068 28.6297 15.8987 28.2068 15.7178 27.77C15.6905 27.7067 15.6634 27.6433 15.6408 27.5801C15.6047 27.4987 15.573 27.4149 15.5435 27.3335C15.4982 27.2136 15.4553 27.0937 15.4146 26.9738C15.3739 26.8538 15.3354 26.7315 15.2969 26.6096C15.2608 26.4919 15.2269 26.3744 15.1952 26.2545C15.1589 26.1278 15.125 25.9988 15.0956 25.8677C15.0934 25.854 15.0887 25.8404 15.0865 25.8268C15.0436 25.6459 15.0051 25.4626 14.9712 25.2771C14.9259 25.0329 14.8898 24.7841 14.8628 24.5328C14.8513 24.4538 14.8445 24.3744 14.8379 24.2954C14.8289 24.2115 14.8221 24.1301 14.8174 24.0465C14.8062 23.8949 14.7994 23.7409 14.7948 23.5871C14.7926 23.4877 14.7902 23.3882 14.7902 23.2888V16.4092C14.7902 11.3259 18.9095 7.20441 23.9925 7.20001H24.0018C24.703 7.20001 25.3862 7.279 26.0421 7.4262C26.6416 7.56173 27.2186 7.75646 27.7658 8.00289C28.5123 8.33755 29.2067 8.7677 29.8311 9.28124C30.3561 9.71095 30.8334 10.195 31.2496 10.729C32.4622 12.274 33.1927 14.2151 33.2085 16.3278C33.2107 16.3549 33.2107 16.3819 33.2107 16.4092Z" fill="#FFE1B2"/>
<path fill-rule="evenodd" clip-rule="evenodd" d="M35.3725 45.1236C31.9845 46.9574 28.1101 47.9997 24.0001 47.9997C19.8905 47.9997 16.0166 46.9577 12.6289 45.1244C12.6329 45.1126 12.637 45.1007 12.641 45.0889C12.7156 44.8696 12.797 44.6524 12.8854 44.4374V44.435C12.9715 44.22 13.0663 44.0097 13.1658 43.8018C13.5616 42.967 14.0549 42.1863 14.6272 41.4717C14.772 41.2928 14.9189 41.1185 15.0705 40.9513C15.141 40.8701 15.2156 40.7911 15.2904 40.712L15.3035 40.6981C15.3825 40.6167 15.462 40.5353 15.5431 40.4539C15.9482 40.0488 16.3823 39.678 16.8395 39.3363C17.0679 39.1667 17.2987 39.0083 17.5386 38.8547C17.7784 38.7031 18.0226 38.5581 18.2715 38.4226C18.2761 38.4182 18.2805 38.4182 18.2805 38.4182C18.3777 38.366 18.4728 38.3095 18.5678 38.2507C18.8506 38.0811 19.1221 37.8932 19.38 37.6853C20.4726 36.8166 21.3186 35.6491 21.8005 34.3101C22.0878 33.5092 22.2438 32.6473 22.2438 31.747L23.9924 31.756L25.7909 31.7652C25.7909 32.6541 25.9425 33.507 26.223 34.2988C26.698 35.6425 27.5418 36.8144 28.6345 37.6875C28.7973 37.821 28.9625 37.9431 29.1366 38.0586C29.1548 38.0721 29.1705 38.0833 29.1887 38.0947C29.2701 38.1491 29.3515 38.2032 29.4376 38.2532C29.5302 38.3097 29.6253 38.3662 29.7203 38.4184C29.7361 38.4228 29.7498 38.4296 29.761 38.4386C29.9601 38.5495 30.1568 38.6648 30.3491 38.7847C30.442 38.8413 30.5346 38.9 30.625 38.9656C30.813 39.0855 30.996 39.2169 31.1749 39.3526C31.1749 39.3548 31.1771 39.3548 31.1771 39.3548H31.1793C31.4079 39.5245 31.6295 39.7055 31.8466 39.891C32.0638 40.0767 32.2719 40.271 32.4733 40.4726C33.7714 41.7649 34.7738 43.351 35.3725 45.1236Z" fill="#FFD7A3"/>
<path fill-rule="evenodd" clip-rule="evenodd" d="M35.3722 45.1238C31.9843 46.9575 28.1099 47.9997 24 47.9997C19.8901 47.9997 16.0159 46.9576 12.6281 45.124C12.6321 45.112 12.6362 45.1 12.6403 45.088C12.7149 44.8687 12.7965 44.6515 12.8845 44.4365V44.4341C12.9706 44.2192 13.0656 44.0088 13.1651 43.8007C13.5609 42.9661 14.054 42.1855 14.6265 41.4706C14.7713 41.2919 14.9185 41.1177 15.0698 40.9505C15.1444 40.8644 15.2236 40.7808 15.3028 40.6972L15.3028 40.6972C15.382 40.6158 15.4613 40.5344 15.5427 40.453C15.9475 40.0479 16.3818 39.6772 16.8388 39.3355C17.0674 39.1658 17.298 39.0074 17.5379 38.8536C17.6622 38.7746 17.7867 38.6976 17.9132 38.623C18.0309 38.5528 18.1509 38.4848 18.2708 38.4193C18.2754 38.4146 18.2798 38.4171 18.2798 38.4171V38.4146C18.377 38.3603 18.4721 38.3062 18.5671 38.2494C18.8499 38.0776 19.1214 37.8875 19.3746 37.6793C19.3768 37.6817 19.3768 37.6817 19.3792 37.6839L19.3793 37.6839C20.5511 38.8829 22.1822 39.6272 23.9919 39.6318H24.0101C25.8199 39.6318 27.4575 38.8853 28.634 37.6864L28.6362 37.6839C28.7968 37.8175 28.9643 37.942 29.1361 38.0573C29.1541 38.0707 29.17 38.082 29.188 38.0934C29.2627 38.1432 29.3394 38.1911 29.4161 38.2389L29.4369 38.2518C29.5295 38.3084 29.6248 38.3627 29.7196 38.4146C29.7303 38.4178 29.739 38.4229 29.7476 38.428C29.7518 38.4304 29.7559 38.4329 29.7603 38.4351C29.8666 38.4941 29.9753 38.555 30.0793 38.6182C30.17 38.6725 30.2604 38.7269 30.3487 38.7834C30.4413 38.84 30.5341 38.8987 30.6246 38.9643C30.8125 39.0842 30.9955 39.2155 31.1742 39.3513H31.1788C31.4072 39.5231 31.6312 39.702 31.8462 39.8895C32.0633 40.0752 32.2715 40.2697 32.4728 40.471C33.7711 41.764 34.7736 43.3506 35.3722 45.1238Z" fill="#3DDDF2"/>
<path d="M33.2107 23.2885C33.2107 23.388 33.2085 23.4874 33.2061 23.5869C33.2039 23.6683 33.2017 23.7475 33.1971 23.8291C33.1949 23.9015 33.1903 23.9739 33.1835 24.0463C33.1813 24.0982 33.1766 24.1504 33.1722 24.2023C33.1698 24.2342 33.1676 24.2632 33.163 24.2951C33.1586 24.3517 33.154 24.4104 33.145 24.467C33.1335 24.5754 33.1223 24.6839 33.1064 24.7904C33.1042 24.8177 33.0996 24.8448 33.0952 24.8718C33.0884 24.9262 33.0794 24.9805 33.0704 25.0346C33.0591 25.116 33.0433 25.1975 33.0297 25.2769C33.0116 25.3719 32.9934 25.4646 32.9731 25.5572C32.9707 25.5777 32.9663 25.5957 32.9617 25.614C32.9595 25.6296 32.9549 25.6457 32.9527 25.6615C32.9505 25.6661 32.9505 25.6705 32.948 25.6751C32.948 25.6864 32.9458 25.6956 32.9436 25.7046C32.9324 25.7521 32.9232 25.7997 32.9097 25.847C32.9053 25.8718 32.9007 25.8969 32.8917 25.9218C32.8825 25.9669 32.8712 26.0098 32.8578 26.0529C32.8556 26.0734 32.851 26.0938 32.8442 26.1139C32.8396 26.1343 32.833 26.1548 32.8283 26.1728C32.7808 26.3583 32.7265 26.5394 32.6699 26.7203C32.6426 26.8063 32.6156 26.8899 32.5863 26.9759C32.5841 26.9849 32.5795 26.994 32.5773 27.003C32.5502 27.08 32.5229 27.1568 32.4959 27.2338C32.4869 27.2565 32.4778 27.2789 32.4688 27.3038C32.4415 27.3762 32.4145 27.4485 32.3852 27.5209C32.3513 27.6089 32.315 27.695 32.2789 27.7812C32.2472 27.8582 32.2134 27.9348 32.1795 28.0118C32.1751 28.0257 32.1683 28.0367 32.1636 28.0503C32.1251 28.1317 32.089 28.2131 32.0505 28.2926C32.012 28.3762 31.9713 28.46 31.9284 28.5438C31.847 28.7089 31.7588 28.8741 31.6706 29.0345L31.5484 29.2517C31.1999 29.8512 30.8133 30.4143 30.3924 30.9346C30.3359 31.0092 30.2771 31.0816 30.216 31.1516C30.1324 31.2535 30.0463 31.3529 29.9603 31.4502C29.8833 31.5362 29.8065 31.622 29.7273 31.7058C29.5101 31.9388 29.2883 32.1604 29.0621 32.3688C29.0168 32.4139 28.9695 32.4548 28.922 32.4977C28.845 32.5677 28.7682 32.6357 28.689 32.7012C28.628 32.7556 28.5647 32.8075 28.5011 32.8596C28.3383 32.993 28.1754 33.1219 28.0102 33.2418C27.9424 33.294 27.8722 33.3437 27.8021 33.3912C27.689 33.4726 27.5735 33.5496 27.4582 33.6245C27.3948 33.6674 27.3292 33.7081 27.2637 33.7466C27.0329 33.8889 26.7998 34.0203 26.569 34.1334C26.5125 34.1629 26.4559 34.1901 26.3994 34.2172C26.3428 34.2443 26.2841 34.2716 26.2229 34.2986C26.1483 34.3325 26.0735 34.3642 25.9989 34.3937C25.9695 34.4071 25.9402 34.4185 25.9107 34.4276C25.8225 34.4639 25.7321 34.4975 25.6438 34.527C25.5332 34.5679 25.4198 34.6018 25.3092 34.6333C25.2322 34.6559 25.1532 34.6762 25.0762 34.6942C25.0715 34.6966 25.0671 34.6988 25.0603 34.6988C24.9833 34.7171 24.9065 34.7351 24.8295 34.7488C24.8093 34.7534 24.7888 34.7578 24.7686 34.7602C24.7052 34.7715 24.6418 34.7829 24.5785 34.7897C24.488 34.8034 24.3974 34.8146 24.3069 34.819C24.2753 34.8236 24.246 34.8258 24.2143 34.8258C24.1419 34.8302 24.0695 34.8326 23.9994 34.8326H23.9925C23.9226 34.8326 23.8524 34.8302 23.7822 34.8258C23.7551 34.8258 23.7278 34.8236 23.7008 34.819C23.6374 34.8168 23.5718 34.81 23.5039 34.8009C23.4904 34.8009 23.4746 34.7987 23.4609 34.7963C23.3773 34.7851 23.2935 34.7715 23.2077 34.7556C23.1353 34.7442 23.0629 34.7283 22.9881 34.7103C22.6013 34.6221 22.2033 34.4885 21.8006 34.3101C21.4567 34.1585 21.1084 33.9752 20.7623 33.7626C20.5883 33.6586 20.4162 33.5455 20.242 33.4234C20.1559 33.3622 20.0701 33.301 19.9841 33.2377C19.7148 33.0407 19.4479 32.826 19.1856 32.5952C19.1132 32.5296 19.0408 32.464 18.9685 32.3963C18.8961 32.3307 18.8237 32.2627 18.7535 32.1971C18.577 32.0275 18.4052 31.8513 18.2377 31.668C18.1722 31.5978 18.1066 31.5256 18.0408 31.4508C17.86 31.2473 17.6835 31.0369 17.5161 30.8174C17.4505 30.7384 17.3893 30.657 17.3284 30.5753C17.0998 30.2721 16.8828 29.9555 16.6791 29.6272C16.6247 29.5392 16.5704 29.4488 16.5185 29.3604C16.4551 29.2541 16.3942 29.1454 16.333 29.0369C16.1068 28.6296 15.8987 28.2068 15.7178 27.77C15.6905 27.7066 15.6634 27.6433 15.6408 27.5801C15.6047 27.4987 15.573 27.4149 15.5435 27.3335C15.4982 27.2136 15.4553 27.0936 15.4146 26.9737C15.3739 26.8538 15.3354 26.7315 15.2969 26.6096C15.2608 26.4919 15.2269 26.3744 15.1952 26.2545C15.1589 26.1277 15.125 25.9988 15.0956 25.8677C15.0934 25.854 15.0887 25.8404 15.0865 25.8267C15.0436 25.6459 15.0051 25.4626 14.9712 25.2771C14.9259 25.0329 14.8898 24.784 14.8628 24.5328C14.8513 24.4538 14.8445 24.3743 14.8379 24.2954C14.8289 24.2115 14.8221 24.1301 14.8174 24.0465C14.8062 23.8949 14.7994 23.7409 14.7948 23.5871C14.7926 23.4876 14.7902 23.3882 14.7902 23.2887L16.2606 26.1799L18.7874 27.2815L21.7753 27.5504H21.7775L23.9921 27.7517H24.0057L26.0777 27.9394C26.0777 27.9394 26.0777 27.9372 26.0799 27.9394L30.7016 28.3559L33.2107 23.2885Z" fill="#4E1E30"/>
<path d="M24.0105 24.7412L24.0083 26.9694V26.9716L24.0061 27.7523V28.3653L24.0039 30.4012V30.4036L24.0017 30.4012H23.9995L23.9927 30.3966L15.0953 25.8678C15.0931 25.8541 15.0885 25.8405 15.0863 25.8268C15.0434 25.646 15.0049 25.4627 14.971 25.2772C14.9257 25.033 14.8896 24.7841 14.8625 24.5329C14.8511 24.4539 14.8443 24.3745 14.8377 24.2955C14.8286 24.2116 14.8218 24.1302 14.8172 24.0466C14.806 23.895 14.7992 23.741 14.7945 23.5872C14.7923 23.4877 14.7899 23.3883 14.7899 23.2888V20.5856C14.7899 20.6241 14.7921 20.6626 14.7921 20.7009C14.8102 21.3546 14.9142 22.0739 15.1156 22.8092C15.2718 23.3747 15.4661 23.8972 15.6925 24.3632V24.3654C16.2852 25.5985 17.0793 26.4352 17.8098 26.571C17.8551 26.5778 17.9024 26.5824 17.9477 26.5868C18.2305 26.6185 18.5268 26.6365 18.8322 26.6365C19.9861 26.6365 21.0107 25.7091 21.6554 25.3335C21.66 25.3313 21.6644 25.3289 21.669 25.3269C21.7029 25.3065 21.7368 25.286 21.7663 25.2658C21.7753 25.2592 21.7843 25.2546 21.7936 25.2502C22.3364 24.9401 23.1192 24.7432 23.9923 24.7412H24.0105Z" fill="#4E1E30"/>
<path d="M33.2125 20.5842L33.2103 23.2875C33.2103 23.966 33.1469 24.6312 33.0294 25.2758C32.9819 25.5337 32.9275 25.7894 32.8642 26.0426L30.7761 29.0581L24.003 30.3996H24.0008L23.9986 30.402V30.3996L23.9918 24.7388H24.0101C24.8831 24.7412 25.6682 24.9379 26.211 25.2477C26.2202 25.2523 26.2268 25.2567 26.2359 25.2635C26.2676 25.2838 26.3014 25.3042 26.3355 25.3245C26.3377 25.3267 26.3424 25.3291 26.3468 25.3313C26.9936 25.7067 28.0161 26.6349 29.1699 26.6349C29.4753 26.6349 29.7717 26.6169 30.0544 26.5852C30.1019 26.5806 30.1471 26.5762 30.1946 26.5694C30.9231 26.4336 31.7194 25.5966 32.3097 24.3638V24.3616C32.5359 23.8956 32.7304 23.3731 32.8866 22.8076C33.0901 22.0608 33.1966 21.3325 33.21 20.6698C33.2125 20.6408 33.2125 20.6135 33.2125 20.5842Z" fill="#4E1E30"/>
<path d="M23.9994 28.3648C25.2456 28.3648 26.2558 28.0525 26.2558 27.6671C26.2558 27.2818 25.2456 26.9694 23.9994 26.9694C22.7533 26.9694 21.743 27.2818 21.743 27.6671C21.743 28.0525 22.7533 28.3648 23.9994 28.3648Z" fill="#F0C290"/>
<path d="M24.0011 7.20001H23.9923C18.9092 7.20463 14.7899 11.3262 14.7899 16.4092V20.47C14.7899 20.47 15.1721 18.0471 16.2016 16.8708C17.3191 15.5927 17.0364 13.6494 19.5429 13.6494C21.1603 13.6494 21.2508 14.2466 23.9903 14.2466H23.9925H24.0013H24.0035C26.7431 14.2466 26.8335 13.6494 28.4509 13.6494C30.9574 13.6494 30.6745 15.5925 31.7922 16.8708C32.8215 18.0471 33.2037 20.47 33.2037 20.47V16.4092C33.2035 11.3262 29.0841 7.20441 24.0011 7.20001Z" fill="#4E1E30"/>
<path d="M30.0791 38.6179L29.8302 38.8714C28.2784 40.4525 26.2062 41.3236 23.996 41.3236C21.7634 41.319 19.6956 40.4459 18.1506 38.867L17.913 38.6228C18.0307 38.5526 18.1506 38.4846 18.2705 38.419C18.2751 38.4144 18.2795 38.4168 18.2795 38.4168V38.4144C18.3768 38.3601 18.4718 38.3059 18.5669 38.2492C18.8496 38.0773 19.1211 37.8872 19.3744 37.6791C19.3766 37.6815 19.3766 37.6815 19.379 37.6837C20.5509 38.8826 22.1819 39.627 23.9916 39.6316H24.0099C25.8196 39.6316 27.4573 38.885 28.6337 37.6861L28.6359 37.6837C28.7966 37.8173 28.964 37.9418 29.1358 38.0571C29.1539 38.0705 29.1697 38.0817 29.1878 38.0932C29.2692 38.1475 29.353 38.1994 29.4366 38.2516C29.5292 38.3081 29.6245 38.3625 29.7193 38.4144C29.7352 38.419 29.7466 38.428 29.76 38.4349C29.8665 38.4938 29.975 38.5548 30.0791 38.6179Z" fill="#0FA9BD"/>
</svg>
