<svg width="48" height="48" viewBox="0 0 48 48" fill="none" xmlns="http://www.w3.org/2000/svg">
<g clip-path="url(#clip0_3048_3588)">
<path fill-rule="evenodd" clip-rule="evenodd" d="M12.1855 21.3998H1.14441e-05V25.6329C1.14441e-05 26.6796 0.854167 27.5344 1.89995 27.5344H6.28305L8.89755 28.855L12.1855 27.5344V21.3998H12.1855Z" fill="#FFE07D"/>
<path fill-rule="evenodd" clip-rule="evenodd" d="M10.2856 15.2571H1.90005C0.85427 15.2571 0.000114441 16.1119 0.000114441 17.1585V20.3039H12.1855V17.1585C12.1855 16.1119 11.3314 15.2571 10.2856 15.2571Z" fill="#FFE07D"/>
<path fill-rule="evenodd" clip-rule="evenodd" d="M12.1855 19.3558H0.000114441V22.3451H12.1855V19.3558Z" fill="#FF8373"/>
<path fill-rule="evenodd" clip-rule="evenodd" d="M2.54333 19.356H0.982861H-1.52588e-05V17.1586C-1.52588e-05 16.4434 0.399735 15.8188 0.982861 15.4954C1.25661 15.3448 1.5687 15.257 1.90002 15.257H4.44336C3.39758 15.257 2.54342 16.1118 2.54342 17.1585V19.356H2.54333Z" fill="#FABA67"/>
<path fill-rule="evenodd" clip-rule="evenodd" d="M2.54346 22.3451H0.982995H0.00012207V21.3998V20.3038V19.3558H0.982995H2.54346V20.3038V21.3998V22.3451Z" fill="#E87060"/>
<path fill-rule="evenodd" clip-rule="evenodd" d="M2.54344 22.3451V25.633C2.54344 26.6796 3.39759 27.5345 4.44336 27.5345H1.90003C1.56882 27.5345 1.25673 27.4495 0.982885 27.2989C0.399764 26.9728 1.90735e-05 26.3481 1.90735e-05 25.633V22.3451H0.982885H2.54344Z" fill="#FABA67"/>
<path fill-rule="evenodd" clip-rule="evenodd" d="M12.1856 27.5345H6.28311V30.2497C6.28311 30.9018 6.81692 31.4333 7.46576 31.4333H26.6836C26.6836 29.7264 26.6836 28.8578 25.3777 28.8578L22.7769 28.8551C21.1398 28.8524 20.0666 28.4331 19.4671 27.5344H12.1856V27.5345Z" fill="#6F6571"/>
<path fill-rule="evenodd" clip-rule="evenodd" d="M24.3652 31.4334H7.4655C6.47447 33.1595 5.67778 35.2337 6.36497 39.201C7.51481 35.2884 19.1938 36.8502 20.3929 41.3655H33.2792C33.7665 40.2613 34.2264 39.1708 34.6289 38.0694H30.996C23.6481 35.2966 26.0107 36.5323 24.3652 31.4334Z" fill="#FFE07D"/>
<path fill-rule="evenodd" clip-rule="evenodd" d="M25.4083 20.8272C25.1564 22.1533 24.8142 23.4603 24.431 24.5726L20.7161 26.0282L16.5739 24.5726C16.719 16.7338 19.6483 12.9747 22.1396 11.7582C23.0376 11.0745 23.9574 10.817 23.9574 10.817C23.9574 10.817 25.1675 12.7528 25.2305 12.7528C25.6958 13.8597 25.8711 15.3036 25.841 16.8626L25.4083 20.8272Z" fill="#E6E4E6"/>
<path fill-rule="evenodd" clip-rule="evenodd" d="M16.5737 24.5727H24.4309C26.2406 24.7699 28.4663 26.1482 28.4663 30.4169V34.8911L26.6832 35.9532L24.3653 34.8911V31.4333C24.3653 29.7264 24.3653 28.8578 23.0595 28.8578L20.4586 28.8551C18.8215 28.8524 17.7483 28.4331 17.1488 27.5344C16.686 26.8414 16.5081 25.8632 16.5737 24.5727Z" fill="#FF8373"/>
<path fill-rule="evenodd" clip-rule="evenodd" d="M16.5739 24.5726C16.719 16.7338 19.6483 12.9747 22.1396 11.7582C22.5092 12.0184 22.9199 12.2322 23.3716 12.3911C21.165 14.0596 18.953 17.7886 18.8271 24.5726H16.5739Z" fill="#CBC9CC"/>
<path fill-rule="evenodd" clip-rule="evenodd" d="M16.5739 24.5727H18.827C18.7613 25.8632 18.9392 26.8413 19.4019 27.5345C19.7797 28.1017 20.3491 28.5812 21.1294 28.8552H20.4586C18.8215 28.8525 17.7483 28.4332 17.1488 27.5345C16.6862 26.8413 16.5083 25.8632 16.5739 24.5727Z" fill="#E87060"/>
<path fill-rule="evenodd" clip-rule="evenodd" d="M20.3931 41.3654C20.3931 37.3132 17.1818 34.0856 13.2203 34.0856C9.99807 34.0856 7.27135 36.2227 6.36516 39.2009C6.17897 39.8119 6.06947 40.4613 6.05035 41.1353C6.0421 41.3983 6.22285 41.3654 6.46922 41.3654C11.1096 41.3654 15.7527 41.3627 20.3931 41.3654Z" fill="#FF8373"/>
<path fill-rule="evenodd" clip-rule="evenodd" d="M18.5889 41.3654H7.67093C7.82693 44.308 10.2115 46.6479 13.1299 46.6479C16.0483 46.6479 18.4329 44.308 18.5889 41.3654Z" fill="#6F6571"/>
<path fill-rule="evenodd" clip-rule="evenodd" d="M46.3137 40.201L36.9207 42.3628C37.5175 44.9575 40.1046 46.5795 42.6972 45.9822C45.2925 45.3849 46.9105 42.7957 46.3137 40.201Z" fill="#6F6571"/>
<path fill-rule="evenodd" clip-rule="evenodd" d="M47.0171 37.5679C45.6893 35.6363 43.3842 34.5157 40.975 34.7568C36.7261 35.6555 35.3436 38.1954 35.0671 41.3627C35.0725 41.7929 35.1191 42.2258 35.2122 42.6587C35.2396 42.7793 35.319 42.73 35.4504 42.6998L36.9206 42.3628L46.3136 40.201L47.0172 40.0394L48 39.8119C47.8111 38.9845 47.4716 38.2283 47.0171 37.5679Z" fill="#FFE07D"/>
<path fill-rule="evenodd" clip-rule="evenodd" d="M40.9834 34.7459L37.189 21.6164L35.4806 20.8519L33.5697 21.6164C36.0802 28.5757 35.3794 33.4335 33.6847 38.0694C33.2795 39.1709 32.8196 40.2613 32.335 41.3655H35.0645L40.9834 34.7459Z" fill="#FF8373"/>
<path fill-rule="evenodd" clip-rule="evenodd" d="M29.2333 6.89496L24.7817 5.94696C24.33 5.98802 23.0378 7.07308 23.0378 7.75258L23.985 12.5693C24.3793 12.6871 24.7981 12.7528 25.2307 12.7528C27.6016 12.7528 29.5234 10.8267 29.5234 8.45393C29.5234 7.90324 29.4222 7.37712 29.2333 6.89496Z" fill="#FFE4D9"/>
<path fill-rule="evenodd" clip-rule="evenodd" d="M30.6704 6.89495C30.6704 3.83177 28.2448 1.35217 25.2498 1.35217C22.2548 1.35217 19.8292 3.83177 19.8292 6.89495C19.8292 8.91695 20.6505 10.7143 22.1398 11.7582C22.6709 12.1336 23.2897 12.4104 23.985 12.5693V7.75248C23.985 7.07298 24.3299 6.93602 24.7817 6.89486H29.2331H30.6704V6.89495Z" fill="#FF8373"/>
<path fill-rule="evenodd" clip-rule="evenodd" d="M28.0859 2.17136C27.2619 1.65077 26.29 1.35217 25.2497 1.35217C22.2547 1.35217 19.8291 3.83177 19.8291 6.89495C19.8291 8.91695 20.6504 10.7143 22.1397 11.7582C22.5175 12.024 22.9364 12.2405 23.3964 12.3994C22.2958 11.2842 21.699 9.6842 21.699 7.91964C21.699 4.71948 24.2368 2.12477 27.366 2.12477C27.6096 2.12477 27.8505 2.13845 28.0859 2.17136Z" fill="#E87060"/>
<path fill-rule="evenodd" clip-rule="evenodd" d="M28.4666 34.8911H24.3655V37.4749C24.3655 38.0284 24.6666 38.0694 25.1102 38.0694H30.9962C31.114 35.4774 29.5453 34.8911 28.4666 34.8911Z" fill="#6F6571"/>
<path fill-rule="evenodd" clip-rule="evenodd" d="M33.6846 38.0694C35.3792 33.4335 36.0801 28.5757 33.5696 21.6163H34.9768C34.9823 21.6163 34.9878 21.6163 34.9932 21.6163H35.4997C38.0101 28.5757 37.312 33.4334 35.6147 38.0694C35.2122 39.1708 34.7523 40.2612 34.265 41.3654H33.2794H32.3348C32.8194 40.2612 33.2794 39.1707 33.6846 38.0694Z" fill="#E87060"/>
<path fill-rule="evenodd" clip-rule="evenodd" d="M35.0673 41.3627L40.9752 34.7568C41.5857 34.6965 42.1908 34.7212 42.7739 34.8281L37.096 41.1763C37.1014 41.5462 37.137 41.9216 37.2082 42.2969L36.9207 42.3626L35.4506 42.6997C35.3191 42.7298 35.2397 42.7792 35.2123 42.6586C35.1193 42.2258 35.0728 41.7928 35.0673 41.3627Z" fill="#FABA67"/>
<path fill-rule="evenodd" clip-rule="evenodd" d="M7.46548 31.4334H24.3652V32.9211H10.4796C9.34902 32.9211 8.81239 33.4088 8.37158 34.398C7.99105 35.2556 7.9828 35.5351 7.81039 36.5707C7.16155 37.3242 6.66327 38.2174 6.36486 39.201C5.67777 35.2336 6.47445 33.1595 7.46548 31.4334Z" fill="#FABA67"/>
<path fill-rule="evenodd" clip-rule="evenodd" d="M7.81062 36.5706C9.12471 35.0444 11.0603 34.0856 13.2203 34.0856C13.7623 34.0856 14.288 34.1459 14.7944 34.2582C11.5612 34.9897 9.29984 37.8447 9.20131 41.1353C9.19587 41.3161 9.278 41.3572 9.40934 41.3654H7.67094H6.46906C6.22268 41.3654 6.04194 41.3983 6.05019 41.1353C6.06931 40.4613 6.17881 39.8119 6.365 39.2009C6.37044 39.1817 6.37597 39.1653 6.3814 39.1489C6.3814 39.1489 6.3814 39.1489 6.3814 39.1462C6.68262 38.1844 7.17265 37.3104 7.81062 36.5706Z" fill="#E87060"/>
<path fill-rule="evenodd" clip-rule="evenodd" d="M37.208 42.297L46.3137 40.201C46.4149 40.6311 46.4506 41.0641 46.4342 41.486L39.2067 43.1491L38.922 43.2149C39.1903 44.393 39.8719 45.3711 40.7781 46.0315C38.9302 45.7054 37.3669 44.3081 36.9207 42.3628L37.208 42.297Z" fill="#4A424D"/>
<path fill-rule="evenodd" clip-rule="evenodd" d="M9.40934 41.3654H18.5889C18.5588 41.9408 18.441 42.4943 18.2521 43.0121H11.8569H10.1185C10.1869 44.2998 10.6797 45.4697 11.4572 46.3821C9.34643 45.6889 7.79421 43.7189 7.67103 41.3654H9.40934V41.3654Z" fill="#4A424D"/>
<path fill-rule="evenodd" clip-rule="evenodd" d="M6.28304 30.2497V27.5345H9.99264V30.2497C9.99264 30.9019 10.5264 31.4333 11.1753 31.4333H7.46569C6.81685 31.4334 6.28304 30.9019 6.28304 30.2497Z" fill="#4A424D"/>
<path fill-rule="evenodd" clip-rule="evenodd" d="M29.5015 7.99365H25.8439C25.3922 8.03471 25.0472 8.17449 25.0472 8.85399V12.7473C24.6804 12.7309 24.3245 12.6706 23.985 12.5692V7.75252C23.985 7.07302 24.3299 6.93605 24.7817 6.8949H29.2332C29.3673 7.24018 29.4604 7.61002 29.5015 7.99365Z" fill="#FACFBB"/>
<path fill-rule="evenodd" clip-rule="evenodd" d="M37.9802 17.4818L32.858 19.1751C32.6061 19.3997 32.8908 21.6903 33.0606 21.6163H37.1891H39.0151V17.8462C39.0151 17.1037 38.6291 17.2681 37.9802 17.4818Z" fill="#FFE07D"/>
<path fill-rule="evenodd" clip-rule="evenodd" d="M30.4704 21.6163H30.9003H33.0603C34.4511 21.6163 34.4921 19.3093 32.8577 19.175L30.4704 18.9832L29.8298 20.3395L30.4704 21.6163Z" fill="#FFE4D9"/>
<path fill-rule="evenodd" clip-rule="evenodd" d="M25.8412 16.8627L24.9844 16.1256C22.8381 14.2762 20.1249 17.397 22.9941 19.2601L25.4087 20.8273L26.6242 21.6164H30.4707V18.9833L28.0807 18.7888L25.8412 16.8627Z" fill="#FF8373"/>
<path fill-rule="evenodd" clip-rule="evenodd" d="M30.4707 21.6163V20.3396H30.9827H31.2591H31.6917H33.8517C33.9338 20.3396 34.0105 20.3341 34.0844 20.3176C34.1638 20.9533 33.8051 21.6163 33.0604 21.6163H30.9004H30.4707Z" fill="#FACFBB"/>
<path fill-rule="evenodd" clip-rule="evenodd" d="M22.994 19.2601C21.2584 18.1312 21.565 16.5449 22.5532 15.8763C22.4738 16.5613 22.7996 17.3477 23.7852 17.9861L25.666 19.2053L26.1971 19.5533L27.4127 20.3397H30.4707V21.6165H26.6242L25.4087 20.8274L22.994 19.2601Z" fill="#E87060"/>
<path fill-rule="evenodd" clip-rule="evenodd" d="M32.8579 19.175L34.9194 18.4955C35.6093 19.2353 35.9433 20.6765 35.4998 21.6163H33.5698H33.0605C33.8052 21.6163 34.1638 20.9532 34.0845 20.3176C34.0133 19.7669 33.6163 19.238 32.8579 19.175Z" fill="#FABA67"/>
</g>
<defs>
<clipPath id="clip0_3048_3588">
<rect width="48" height="48" fill="white" transform="matrix(-1 0 0 1 48 0)"/>
</clipPath>
</defs>
</svg>
