<svg width="139" height="130" viewBox="0 0 139 130" fill="none" xmlns="http://www.w3.org/2000/svg">
<g clip-path="url(#clip0_1466_7190)">
<path d="M66 129.999C101.8 129.999 131 100.8 131 65C131 29.199 101.801 0 66 0C30.199 0 1 29.199 1 64.9997C1 100.8 30.199 129.999 66 129.999Z" fill="#E8EDED"/>
<path d="M90.9457 44.4416V63.0731C90.9457 63.3424 90.9398 63.6118 90.9332 63.8811C90.9272 64.1016 90.9213 64.3162 90.9088 64.5372C90.9028 64.7333 90.8903 64.9293 90.8718 65.1254C90.8659 65.266 90.8534 65.4072 90.8414 65.5479C90.8349 65.6343 90.8289 65.7129 90.8164 65.7994C90.8045 65.9525 90.792 66.1116 90.7675 66.2648C90.7431 66.5585 90.7062 66.847 90.6632 67.1407C90.6573 67.2146 90.6448 67.2879 90.6329 67.3612C90.6144 67.5084 90.59 67.6556 90.5655 67.8022V67.8207C90.5292 68.0346 90.4922 68.2432 90.4553 68.4577C90.3999 68.7515 90.345 69.0458 90.2837 69.3337C90.2777 69.3462 90.2777 69.3587 90.2717 69.3712C90.2658 69.4135 90.2592 69.457 90.2473 69.4999C90.2414 69.5124 90.2414 69.5243 90.2348 69.5369C90.2044 69.6966 90.1675 69.8491 90.1305 70.0023C90.1186 70.0696 90.1061 70.1375 90.0816 70.2049C90.0632 70.3151 90.0322 70.4248 90.0084 70.5356C89.9899 70.597 89.978 70.6643 89.9529 70.7251C89.9404 70.7805 89.9225 70.8359 89.91 70.8848C89.7813 71.3871 89.6341 71.8776 89.481 72.3674C89.4071 72.6004 89.3338 72.8268 89.2545 73.0598C89.2486 73.0843 89.2361 73.1087 89.2301 73.1331C89.1568 73.3417 89.0829 73.5497 89.0096 73.7582C88.9852 73.8196 88.9608 73.8804 88.9363 73.9477C88.8624 74.1438 88.7891 74.3398 88.7099 74.5359C88.6181 74.7743 88.5198 75.0073 88.4221 75.2409C88.3363 75.4494 88.2445 75.6568 88.1527 75.8654C88.1408 75.9029 88.1223 75.9327 88.1098 75.9696C88.0055 76.1901 87.9078 76.4106 87.8035 76.6257C87.6992 76.8522 87.589 77.0792 87.4728 77.3063C87.2523 77.7532 87.0133 78.2007 86.7744 78.6351L86.4437 79.2233C85.4997 80.8471 84.4527 82.372 83.3128 83.7813C83.1596 83.9834 83.0005 84.1794 82.8349 84.3689C82.6084 84.6448 82.3754 84.9142 82.1424 85.1776C81.9339 85.4105 81.7259 85.643 81.5114 85.87C80.9232 86.5011 80.3225 87.1011 79.7099 87.6655C79.5872 87.7876 79.4591 87.8984 79.3304 88.0146C79.1218 88.2041 78.9138 88.3883 78.6993 88.5659C78.5342 88.7131 78.3626 88.8537 78.1904 88.9949C77.7494 89.356 77.3085 89.7052 76.8609 90.03C76.6774 90.1712 76.4873 90.3059 76.2972 90.4346C75.9909 90.6551 75.6781 90.8637 75.3658 91.0663C75.1942 91.1825 75.0166 91.2927 74.839 91.397C74.2139 91.7825 73.5829 92.1383 72.9578 92.4446C72.8046 92.5245 72.6515 92.5983 72.4983 92.6716C72.3452 92.7449 72.1861 92.8188 72.0204 92.8921C71.8184 92.9839 71.6158 93.0697 71.4138 93.1496C71.3339 93.1859 71.2547 93.2169 71.1748 93.2413C70.9359 93.3396 70.6909 93.4308 70.452 93.5107C70.1522 93.6215 69.8454 93.7133 69.5456 93.7985C69.337 93.8599 69.1231 93.9147 68.9146 93.9636C68.902 93.9701 68.8901 93.9761 68.8716 93.9761C68.6631 94.0255 68.4551 94.0744 68.2465 94.1113C68.1917 94.1239 68.1363 94.1358 68.0815 94.1423C67.9099 94.1727 67.7382 94.2037 67.5666 94.2222C67.3217 94.2591 67.0762 94.2895 66.8313 94.3014C66.7455 94.3139 66.6662 94.3199 66.5804 94.3199C66.3843 94.3318 66.1883 94.3384 65.9982 94.3384H65.9797C65.7902 94.3384 65.6001 94.3318 65.41 94.3199C65.3367 94.3199 65.2629 94.3139 65.1896 94.3014C65.0179 94.2955 64.8404 94.277 64.6562 94.2526C64.6199 94.2526 64.577 94.2466 64.54 94.2401C64.3136 94.2097 64.0865 94.1727 63.8541 94.1298C63.6581 94.0988 63.462 94.0559 63.2594 94.0071C62.2118 93.7681 61.1338 93.4064 60.0433 92.9231C59.1119 92.5125 58.1686 92.0162 57.2313 91.4405C56.7599 91.1527 56.2879 90.8464 55.8219 90.5216C55.5889 90.356 55.3565 90.1903 55.1235 90.0187C54.3942 89.4853 53.6713 88.9037 52.961 88.2786C52.765 88.1011 52.5689 87.9235 52.3729 87.7399C52.1768 87.5624 51.9808 87.3782 51.7907 87.2006C51.3127 86.7412 50.8473 86.2639 50.3939 85.7675C50.2163 85.5774 50.0387 85.382 49.8605 85.1793C49.3707 84.6281 48.8928 84.0584 48.4393 83.4637C48.2617 83.2498 48.0961 83.0293 47.931 82.8082C47.3118 81.9871 46.7243 81.1296 46.1725 80.2405C46.0253 80.0021 45.8781 79.7572 45.7375 79.5177C45.5658 79.2298 45.4008 78.9355 45.2351 78.6417C44.6225 77.5387 44.0588 76.3933 43.569 75.2105C43.4951 75.0388 43.4218 74.8672 43.3604 74.6962C43.2627 74.4757 43.1769 74.2487 43.097 74.0282C42.9743 73.7034 42.8581 73.3787 42.7478 73.0539C42.6376 72.7291 42.5333 72.3978 42.429 72.0677C42.3313 71.7489 42.2395 71.4306 42.1537 71.1059C42.0554 70.7626 41.9636 70.4134 41.8838 70.0583C41.8778 70.0213 41.8653 69.9844 41.8593 69.9474C41.7431 69.4576 41.6388 68.9612 41.5471 68.4589C41.4243 67.7974 41.3266 67.1235 41.2533 66.4429C41.2223 66.229 41.2038 66.0139 41.186 65.7999C41.1615 65.5729 41.143 65.3524 41.1305 65.126C41.1001 64.7154 41.0817 64.2983 41.0692 63.8817C41.0632 63.6124 41.0566 63.343 41.0566 63.0737V44.4416C41.0566 30.6744 52.2132 19.5119 65.9797 19.5H66.0048C67.9039 19.5 69.7542 19.7139 71.5306 20.1126C73.1544 20.4797 74.7169 21.007 76.1989 21.6745C78.2208 22.5808 80.1015 23.7458 81.7926 25.1367C83.2145 26.3005 84.507 27.6114 85.6344 29.0577C88.9184 33.2421 90.8968 38.4992 90.9398 44.2211C90.9457 44.2944 90.9457 44.3677 90.9457 44.4416Z" fill="#FFE1B2"/>
<path fill-rule="evenodd" clip-rule="evenodd" d="M96.8004 122.21C87.6246 127.176 77.1314 129.999 66 129.999C54.87 129.999 44.378 127.177 35.2031 122.212C35.214 122.18 35.2249 122.148 35.2359 122.116C35.4379 121.522 35.6584 120.934 35.8979 120.351V120.345C36.1309 119.763 36.3878 119.193 36.6571 118.63C37.7291 116.369 39.0652 114.255 40.6151 112.319C41.0072 111.835 41.4053 111.363 41.8159 110.91C42.0067 110.69 42.2088 110.476 42.4115 110.261L42.4469 110.224C42.6608 110.003 42.876 109.783 43.0959 109.562C44.1929 108.465 45.3686 107.461 46.6069 106.536C47.2255 106.076 47.8506 105.647 48.5001 105.231C49.1496 104.821 49.8111 104.428 50.4851 104.061C50.4976 104.049 50.5095 104.049 50.5095 104.049C50.7729 103.908 51.0303 103.755 51.2877 103.596C52.0535 103.136 52.7888 102.627 53.4872 102.064C56.4465 99.7116 58.7377 96.5497 60.0428 92.9231C60.821 90.754 61.2435 88.4198 61.2435 85.9814L65.9792 86.0058L70.8501 86.0308C70.8501 88.4383 71.2607 90.748 72.0204 92.8927C73.307 96.5319 75.5923 99.7057 78.5515 102.07C78.9925 102.432 79.44 102.763 79.9114 103.075C79.9609 103.112 80.0032 103.142 80.0526 103.173C80.2731 103.32 80.4936 103.467 80.7266 103.602C80.9775 103.755 81.2349 103.909 81.4923 104.05C81.5352 104.062 81.5722 104.08 81.6026 104.105C82.1419 104.405 82.6746 104.717 83.1954 105.042C83.4469 105.195 83.6978 105.354 83.9427 105.532C84.4516 105.857 84.9474 106.212 85.4319 106.58C85.4319 106.586 85.4378 106.586 85.4378 106.586H85.4438C86.0629 107.045 86.663 107.536 87.2511 108.038C87.8393 108.541 88.403 109.067 88.9483 109.613C92.4641 113.113 95.1789 117.409 96.8004 122.21Z" fill="#FFD7A3"/>
<path fill-rule="evenodd" clip-rule="evenodd" d="M96.7996 122.21C87.624 127.177 77.1311 129.999 66 129.999C54.8691 129.999 44.3763 127.177 35.2009 122.211C35.2119 122.178 35.223 122.146 35.2341 122.113C35.4361 121.519 35.6572 120.931 35.8956 120.349V120.342C36.1286 119.76 36.386 119.19 36.6553 118.627C37.7274 116.366 39.0628 114.252 40.6133 112.316C41.0054 111.832 41.4041 111.36 41.8141 110.907C42.0161 110.674 42.2306 110.448 42.4451 110.222C42.6597 110.001 42.8742 109.781 43.0947 109.56C44.1911 108.463 45.3675 107.459 46.6052 106.533C47.2243 106.074 47.8488 105.645 48.4983 105.228C48.835 105.015 49.1723 104.806 49.5149 104.604C49.8338 104.414 50.1585 104.23 50.4833 104.052C50.4958 104.04 50.5077 104.046 50.5077 104.046V104.04C50.7711 103.892 51.0285 103.746 51.286 103.592C52.0517 103.127 52.7871 102.612 53.4729 102.048C53.4789 102.055 53.4789 102.055 53.4854 102.061L53.4855 102.061C56.6592 105.308 61.0767 107.324 65.978 107.336H66.0274C70.9288 107.336 75.3641 105.314 78.5504 102.067L78.5563 102.061C78.9913 102.422 79.4448 102.76 79.9102 103.072C79.9591 103.108 80.002 103.139 80.0508 103.17C80.253 103.305 80.4607 103.434 80.6684 103.563L80.7248 103.599C80.9757 103.752 81.2337 103.899 81.4906 104.04C81.5195 104.048 81.543 104.062 81.5665 104.076C81.5777 104.082 81.589 104.089 81.6008 104.095C81.8886 104.255 82.183 104.42 82.4649 104.591C82.7104 104.738 82.9553 104.885 83.1942 105.038C83.4451 105.191 83.6966 105.351 83.9415 105.528C84.4504 105.853 84.9462 106.209 85.4301 106.576H85.4426C86.0611 107.042 86.6678 107.526 87.25 108.034C87.8381 108.537 88.4018 109.064 88.9471 109.609C92.4634 113.111 95.1784 117.408 96.7996 122.21Z" fill="#3DDDF2"/>
<path d="M90.9457 63.0731C90.9457 63.3424 90.9398 63.6118 90.9332 63.8811C90.9272 64.1016 90.9213 64.3161 90.9088 64.5372C90.9028 64.7332 90.8903 64.9293 90.8718 65.1254C90.8659 65.266 90.8534 65.4072 90.8414 65.5478C90.8349 65.6343 90.8289 65.7129 90.8164 65.7993C90.8045 65.9525 90.792 66.1116 90.7675 66.2647C90.7365 66.5585 90.7062 66.8523 90.6632 67.1407C90.6573 67.2146 90.6448 67.2879 90.6329 67.3612C90.6144 67.5084 90.59 67.6556 90.5655 67.8022C90.5351 68.0226 90.4922 68.2431 90.4553 68.4582C90.4064 68.7157 90.357 68.9665 90.3021 69.2174C90.2956 69.2728 90.2837 69.3217 90.2712 69.3712C90.2652 69.4135 90.2527 69.457 90.2467 69.4999C90.2408 69.5124 90.2408 69.5243 90.2342 69.5368C90.2342 69.5672 90.2282 69.5922 90.2223 69.6167C90.1919 69.7454 90.1669 69.8741 90.1305 70.0022C90.1186 70.0696 90.1061 70.1375 90.0816 70.2048C90.0566 70.327 90.0262 70.4432 89.9899 70.56C89.9839 70.6154 89.9714 70.6708 89.9529 70.7251C89.9404 70.7805 89.9225 70.8359 89.91 70.8848C89.7813 71.3871 89.6341 71.8775 89.481 72.3674C89.4071 72.6004 89.3338 72.8268 89.2545 73.0598C89.2486 73.0842 89.2361 73.1087 89.2301 73.1331C89.1568 73.3417 89.0829 73.5496 89.0096 73.7582C88.9852 73.8196 88.9608 73.8804 88.9363 73.9477C88.8624 74.1438 88.7891 74.3398 88.7099 74.5359C88.6181 74.7742 88.5198 75.0072 88.4221 75.2408C88.3363 75.4494 88.2445 75.6568 88.1527 75.8653C88.1408 75.9029 88.1223 75.9327 88.1098 75.9696C88.0055 76.1901 87.9078 76.4106 87.8035 76.6257C87.6992 76.8521 87.589 77.0792 87.4728 77.3062C87.2523 77.7531 87.0133 78.2007 86.7744 78.6351L86.4437 79.2232C85.4997 80.8471 84.4527 82.372 83.3128 83.7813C83.1596 83.9833 83.0005 84.1794 82.8349 84.3689C82.6084 84.6448 82.3754 84.9141 82.1424 85.1775C81.9339 85.4105 81.7259 85.6429 81.5114 85.87C80.9232 86.501 80.3225 87.1011 79.7099 87.6654C79.5872 87.7876 79.4591 87.8984 79.3304 88.0146C79.1218 88.2041 78.9138 88.3882 78.6993 88.5658C78.5342 88.713 78.3626 88.8537 78.1904 88.9949C77.7494 89.356 77.3085 89.7052 76.8609 90.03C76.6774 90.1712 76.4873 90.3059 76.2972 90.4346C75.9909 90.6551 75.6781 90.8636 75.3658 91.0662C75.1942 91.1824 75.0166 91.2927 74.839 91.397C74.2139 91.7825 73.5829 92.1383 72.9578 92.4446C72.8046 92.5244 72.6515 92.5983 72.4983 92.6716C72.3452 92.7449 72.1861 92.8188 72.0204 92.8921C71.8184 92.9839 71.6158 93.0697 71.4138 93.1495C71.3339 93.1859 71.2547 93.2169 71.1748 93.2413C70.9359 93.3396 70.6909 93.4308 70.452 93.5106C70.1522 93.6215 69.8454 93.7132 69.5456 93.7985C69.337 93.8598 69.1231 93.9147 68.9146 93.9635C68.902 93.9701 68.8901 93.976 68.8716 93.976C68.6631 94.0255 68.4551 94.0744 68.2465 94.1113C68.1917 94.1238 68.1363 94.1357 68.0815 94.1423C67.9099 94.1727 67.7382 94.2037 67.5666 94.2222C67.3217 94.2591 67.0762 94.2895 66.8313 94.3014C66.7455 94.3139 66.6662 94.3199 66.5804 94.3199C66.3843 94.3318 66.1883 94.3383 65.9982 94.3383H65.9797C65.7902 94.3383 65.6001 94.3318 65.41 94.3199C65.3367 94.3199 65.2629 94.3139 65.1896 94.3014C65.0179 94.2954 64.8404 94.277 64.6562 94.2525C64.6199 94.2525 64.577 94.2466 64.54 94.24C64.3136 94.2096 64.0865 94.1727 63.8541 94.1298C63.6581 94.0988 63.462 94.0559 63.2594 94.007C62.2118 93.7681 61.1338 93.4064 60.0433 92.9231C59.1119 92.5125 58.1686 92.0161 57.2313 91.4405C56.7599 91.1586 56.2939 90.8523 55.8219 90.5216C55.5889 90.3559 55.3565 90.1903 55.1235 90.0186C54.3942 89.4853 53.6713 88.9037 52.961 88.2786C52.765 88.101 52.5689 87.9234 52.3729 87.7399C52.1768 87.5623 51.9808 87.3782 51.7907 87.2006C51.3127 86.7412 50.8473 86.2639 50.3939 85.7675C50.2163 85.5774 50.0387 85.3819 49.8605 85.1793C49.3707 84.6281 48.8928 84.0584 48.4393 83.4637C48.2617 83.2498 48.0961 83.0293 47.931 82.8082C47.3118 81.987 46.7243 81.1295 46.1725 80.2405C46.0253 80.0021 45.8781 79.7572 45.7375 79.5176C45.5658 79.2298 45.4008 78.9354 45.2351 78.6416C44.6225 77.5386 44.0588 76.3933 43.569 75.2104C43.4951 75.0388 43.4218 74.8672 43.3604 74.6962C43.2627 74.4757 43.1769 74.2486 43.097 74.0282C42.9743 73.7034 42.8581 73.3786 42.7478 73.0539C42.6376 72.7291 42.5333 72.3978 42.429 72.0676C42.3313 71.7488 42.2395 71.4306 42.1537 71.1058C42.0554 70.7626 41.9636 70.4134 41.8838 70.0582C41.8778 70.0213 41.8653 69.9844 41.8593 69.9474C41.7431 69.4576 41.6388 68.9612 41.5471 68.4588C41.4243 67.7974 41.3266 67.1234 41.2533 66.4429C41.2223 66.229 41.2038 66.0138 41.186 65.7999C41.1615 65.5729 41.143 65.3524 41.1305 65.1259C41.1001 64.7154 41.0817 64.2982 41.0692 63.8817C41.0632 63.6123 41.0566 63.343 41.0566 63.0737L45.0391 70.9038L51.8824 73.8875L59.9748 74.6157H59.9808L65.9785 75.161H66.0155L71.6271 75.6693C71.6271 75.6693 71.6271 75.6633 71.6331 75.6693L84.15 76.7973L90.9457 63.0731Z" fill="#4E1E30"/>
<path d="M66.0287 67.0074L66.0227 73.0421V73.0481L66.0168 75.1623V76.8225L66.0108 82.3364V82.343L66.0049 82.3364H65.9989L65.9804 82.3239L41.8833 70.0584C41.8773 70.0215 41.8648 69.9845 41.8588 69.9476C41.7426 69.4578 41.6384 68.9614 41.5466 68.459C41.4238 67.7976 41.3261 67.1236 41.2528 66.4431C41.2218 66.2292 41.2033 66.014 41.1855 65.8001C41.161 65.5731 41.1426 65.3526 41.13 65.1261C41.0997 64.7156 41.0812 64.2984 41.0687 63.8819C41.0627 63.6125 41.0562 63.3432 41.0562 63.0738V55.7526C41.0562 55.8568 41.0621 55.9611 41.0621 56.0648C41.111 57.8352 41.3928 59.7833 41.9381 61.7748C42.3612 63.3062 42.8874 64.7215 43.5006 65.9836V65.9896C45.1059 69.329 47.2565 71.5953 49.2349 71.9629C49.3577 71.9814 49.4858 71.9939 49.6086 72.0058C50.3743 72.0917 51.177 72.1405 52.0041 72.1405C55.129 72.1405 57.9041 69.6288 59.6501 68.6116C59.6627 68.6056 59.6746 68.5991 59.6871 68.5937C59.7789 68.5383 59.8706 68.4829 59.9505 68.428C59.9749 68.4102 59.9993 68.3976 60.0244 68.3857C61.4945 67.5461 63.6147 67.0128 65.9792 67.0074H66.0287Z" fill="#4E1E30"/>
<path d="M90.9506 55.7488L90.9446 63.0701C90.9446 64.9079 90.773 66.7093 90.4548 68.4553C90.3261 69.1537 90.1789 69.8461 90.0073 70.532L84.3521 78.6989L66.0084 82.3321H66.0025L65.9965 82.3387V82.3321L65.978 67.0007H66.0275C68.392 67.0073 70.5182 67.54 71.9883 68.379C72.0133 68.3915 72.0312 68.4035 72.0557 68.4219C72.1415 68.4768 72.2332 68.5322 72.3256 68.587C72.3316 68.593 72.3441 68.5995 72.356 68.6055C74.1079 69.6221 76.8771 72.1362 80.002 72.1362C80.8292 72.1362 81.6318 72.0873 82.3976 72.0015C82.5263 71.989 82.6484 71.9771 82.7772 71.9586C84.7502 71.5909 86.9068 69.3241 88.5056 65.9853V65.9793C89.1182 64.7172 89.645 63.3019 90.068 61.7704C90.6193 59.7479 90.9077 57.7755 90.944 55.9806C90.9506 55.902 90.9506 55.8281 90.9506 55.7488Z" fill="#4E1E30"/>
<path d="M65.9982 76.8214C69.3732 76.8214 72.1092 75.9754 72.1092 74.9318C72.1092 73.8882 69.3732 73.0422 65.9982 73.0422C62.6232 73.0422 59.8872 73.8882 59.8872 74.9318C59.8872 75.9754 62.6232 76.8214 65.9982 76.8214Z" fill="#F0C290"/>
<path d="M66.0031 19.5H65.9792C52.2127 19.5125 41.0562 30.675 41.0562 44.4416V55.4396C41.0562 55.4396 42.0912 48.8775 44.8795 45.6918C47.9061 42.2302 47.1403 36.9671 53.9289 36.9671C58.3094 36.9671 58.5543 38.5844 65.9739 38.5844H65.9798H66.0037H66.0096C73.4292 38.5844 73.6741 36.9671 78.0546 36.9671C84.8432 36.9671 84.0768 42.2296 87.104 45.6918C89.8917 48.8775 90.9268 55.4396 90.9268 55.4396V44.4416C90.9262 30.675 79.7696 19.5119 66.0031 19.5Z" fill="#4E1E30"/>
<path d="M82.4643 104.59L81.7904 105.277C77.5874 109.559 71.9752 111.918 65.9894 111.918C59.9427 111.906 54.3424 109.541 50.158 105.265L49.5144 104.603C49.8332 104.413 50.158 104.229 50.4827 104.052C50.4953 104.039 50.5072 104.046 50.5072 104.046V104.039C50.7706 103.892 51.028 103.745 51.2854 103.591C52.0512 103.126 52.7865 102.611 53.4724 102.047C53.4784 102.054 53.4784 102.054 53.4849 102.06C56.6587 105.307 61.0761 107.323 65.9774 107.336H66.0269C70.9282 107.336 75.3635 105.314 78.5498 102.067L78.5558 102.06C78.9908 102.422 79.4443 102.759 79.9097 103.071C79.9585 103.108 80.0015 103.138 80.0503 103.169C80.2708 103.316 80.4978 103.457 80.7243 103.598C80.9752 103.751 81.2332 103.898 81.49 104.039C81.5329 104.052 81.5639 104.076 81.6003 104.094C81.8887 104.254 82.1825 104.419 82.4643 104.59Z" fill="#0FA9BD"/>
<rect x="100" y="1.5" width="37" height="37" rx="18.5" fill="#FFCC66"/>
<path d="M120.745 14.9312L112.559 23.1167L111.5 27L115.383 25.9409L123.569 17.7554M120.745 14.9312L122.091 13.5849C122.276 13.3995 122.496 13.2524 122.739 13.152C122.981 13.0517 123.241 13 123.503 13C123.765 13 124.025 13.0517 124.267 13.152C124.509 13.2524 124.73 13.3995 124.915 13.5849C125.101 13.7704 125.248 13.9905 125.348 14.2328C125.448 14.4751 125.5 14.7348 125.5 14.997C125.5 15.2593 125.448 15.519 125.348 15.7613C125.248 16.0036 125.101 16.2237 124.915 16.4091L123.569 17.7554M120.745 14.9312L123.569 17.7554" stroke="#2B2B2B" stroke-width="1.5" stroke-linecap="round" stroke-linejoin="round"/>
<rect x="100" y="1.5" width="37" height="37" rx="18.5" stroke="white" stroke-width="3"/>
</g>
<defs>
<clipPath id="clip0_1466_7190">
<rect width="138" height="130" fill="white" transform="translate(0.5)"/>
</clipPath>
</defs>
</svg>
